/* XPM */
static char *file_xpm[]={
"18 18 85 2",
".i c #303030",
".m c #424242",
".# c #585858",
".l c #6b6b6b",
".e c #6d6d6d",
".g c #707070",
".k c #898989",
"## c #8e8270",
"#. c #8f8575",
".p c #8f8984",
".9 c #91887a",
".T c #91887b",
".8 c #928b7f",
".S c #928b80",
".7 c #938d84",
".R c #948e85",
".F c #948f86",
".6 c #949089",
".Q c #95918a",
".E c #95918b",
".D c #97948f",
".C c #989794",
".c c #999999",
".B c #9a9a9a",
".j c #9b9b9b",
"#s c #bc9e73",
"#j c #bca178",
"#b c #bca37f",
".4 c #bca685",
".V c #bca88a",
".O c #bcab90",
".A c #bcae97",
".b c #bcb7b1",
"#r c #bda076",
"#q c #bea57f",
".t c #beb6af",
"#p c #bfaa88",
"#o c #c0af91",
"#n c #c2b39a",
"#m c #c3b8a3",
"#l c #c4bdac",
"#k c #c6c1b6",
".h c #cecece",
".a c #dedede",
".u c #dfdfdf",
".o c #e2e0de",
"#i c #e5cca7",
"#a c #e7d1b0",
".s c #e7e0d9",
"#h c #e9d6b8",
".3 c #e9d6ba",
".d c #eaeaea",
"#g c #ecdabf",
".U c #ecdbc2",
".2 c #ecdcc1",
".N c #ecdfca",
".G c #ece2d4",
"#f c #eedec8",
".1 c #eee0c9",
".z c #eee7dc",
"#e c #f0e4d0",
".0 c #f0e4d2",
".M c #f1e6d4",
"#d c #f2e8d8",
".Z c #f2e9da",
".L c #f3eadc",
".y c #f3ede3",
"#c c #f4ede1",
".r c #f4f0ec",
".Y c #f5eee2",
".K c #f5eee4",
".n c #f6f5f5",
".5 c #f7f1e9",
".X c #f8f2ea",
".J c #f8f3eb",
".x c #f8f4ed",
".W c #faf6f2",
".I c #faf8f4",
".w c #fbf8f5",
".q c #fbf9f6",
".P c #fcfcfb",
".f c #fcfcfc",
".H c #fdfdfc",
".v c #fefefe",
"Qt c #ffffff",
"QtQtQtQt.#.#.#.#.#.#.#.#.#QtQtQtQtQt",
"QtQtQtQt.#.a.a.a.a.a.b.#.c.#QtQtQtQt",
"QtQtQtQt.#.aQtQtQtQt.d.eQt.c.#QtQtQt",
"QtQtQtQt.#.aQtQtQtQt.f.g.hQt.c.iQtQt",
"QtQtQtQt.#.aQt.j.j.jQt.k.g.l.m.iQtQt",
"QtQtQtQt.#.aQtQtQtQtQt.n.o.b.p.iQtQt",
"QtQtQtQt.#.aQt.j.j.j.j.q.r.s.t.iQtQt",
"QtQtQtQt.#.uQtQtQt.v.w.x.y.z.A.iQtQt",
"QtQtQtQt.#.aQt.j.B.C.D.E.F.G.A.iQtQt",
"QtQtQtQt.#.aQt.H.I.J.K.L.M.N.O.iQtQt",
"QtQtQtQt.#.a.P.C.D.Q.R.S.T.U.V.iQtQt",
"QtQtQtQt.#.a.W.X.Y.Z.0.1.2.3.4.iQtQt",
"QtQtQtQt.#.a.5.6.7.8.9#.###a#b.iQtQt",
"QtQtQtQt.#.a#c#d#e#f#g#h#a#i#j.iQtQt",
"QtQtQtQt.##k#k#l#m#n#o#p#q#r#s.iQtQt",
"QtQtQtQt.#.i.i.i.i.i.i.i.i.i.i.iQtQt",
"QtQtQtQtQtQtQtQtQtQtQtQtQtQtQtQtQtQt",
"QtQtQtQtQtQtQtQtQtQtQtQtQtQtQtQtQtQt"};
