/* XPM */
static char * file_xpm[] = {
"32 32 87 1",
" 	c None",
".	c #B7C371",
"+	c #BCC972",
"@	c #BCC96D",
"#	c #B5C45E",
"$	c #B5C35C",
"%	c #ADB965",
"&	c #B7C370",
"*	c #BECA73",
"=	c #BFCB73",
"-	c #B9C766",
";	c #B2C157",
">	c #ABBC49",
",	c #A5B63A",
"'	c #9EB12C",
")	c #9DB029",
"!	c #9DB02A",
"~	c #ACBC4A",
"{	c #B7C563",
"]	c #B3C158",
"^	c #A1B331",
"/	c #A9B942",
"(	c #B0C053",
"_	c #B8C664",
":	c #B9C571",
"<	c #C8D38A",
"[	c #BCC96C",
"}	c #BAC671",
"|	c #B4C073",
"1	c #C7D289",
"2	c #CAD48B",
"3	c #C8D28A",
"4	c #C8D38B",
"5	c #CAD58C",
"6	c #C9D38C",
"7	c #CBD58D",
"8	c #C9D38D",
"9	c #CBD58E",
"0	c #CAD48E",
"a	c #CCD68F",
"b	c #CAD48F",
"c	c #CCD690",
"d	c #CBD590",
"e	c #CBD591",
"f	c #CDD791",
"g	c #CDD792",
"h	c #CED793",
"i	c #B2BD6D",
"j	c #B1BD6E",
"k	c #B1BC70",
"l	c #CED894",
"m	c #CED794",
"n	c #BECB72",
"o	c #B6C45E",
"p	c #AEBE4E",
"q	c #A2B434",
"r	c #A2B433",
"s	c #BECA70",
"t	c #BFCB74",
"u	c #BBC86B",
"v	c #B2C156",
"w	c #B5C35E",
"x	c #BAC768",
"y	c #CAD48C",
"z	c #B9C666",
"A	c #C8D387",
"B	c #C4CF7D",
"C	c #B4C25A",
"D	c #ADBD4C",
"E	c #C1CE79",
"F	c #B4C35C",
"G	c #B7C562",
"H	c #ADBD4D",
"I	c #A0B22F",
"J	c #B8C374",
"K	c #ABBB47",
"L	c #ACBC49",
"M	c #A9BB45",
"N	c #AABA44",
"O	c #C0CC76",
"P	c #ABBC48",
"Q	c #C7D286",
"R	c #A0B231",
"S	c #B6C55F",
"T	c #BAC767",
"U	c #BAC869",
"V	c #B8C569",
"                                ",
"                                ",
"                                ",
"                                ",
"                                ",
"                                ",
"                      .+@#$     ",
"             %&*=-;>,')!,~{     ",
"             ])))^/(_:    <     ",
"             [@}|         1     ",
"             2            3     ",
"             2            4     ",
"             5            6     ",
"             7            8     ",
"             9            0     ",
"             a            b     ",
"             c            d     ",
"             c            e     ",
"             f            e     ",
"             g            e     ",
"             h        ijk l     ",
"             m     5nopq)rs     ",
"       tuvwxny    =zABC^)D      ",
"     EFGGHI)'J    tKLMNx        ",
"    OP@QnHR]                    ",
"     $STUV                      ",
"                                ",
"                                ",
"                                ",
"                                ",
"                                ",
"                                "};
