/* XPM */
static const char * folder_xpm[] = {
"32 32 145 2",
"  	c None",
". 	c #CACACA",
"+ 	c #C1C1C1",
"@ 	c #BFBFBF",
"# 	c #BCBCBC",
"$ 	c #BBBBBB",
"% 	c #B9B9B9",
"& 	c #B7B7B7",
"* 	c #B5B5B5",
"= 	c #B8B8B8",
"- 	c #A2A2A2",
"; 	c #9E9E9E",
"> 	c #9B9B9B",
", 	c #989898",
"' 	c #979797",
") 	c #959595",
"! 	c #939393",
"~ 	c #919191",
"{ 	c #909090",
"] 	c #A3A3A3",
"^ 	c #9F9F9F",
"/ 	c #9C9C9C",
"( 	c #999999",
"_ 	c #969696",
": 	c #949494",
"< 	c #929292",
"[ 	c #8F8F8F",
"} 	c #9D9D9D",
"| 	c #8E8E8E",
"1 	c #8C8C8C",
"2 	c #8B8B8B",
"3 	c #898989",
"4 	c #8A8A8A",
"5 	c #ADADAD",
"6 	c #8D8D8D",
"7 	c #868686",
"8 	c #848484",
"9 	c #828282",
"0 	c #818181",
"a 	c #7F7F7F",
"b 	c #7E7E7E",
"c 	c #ACACAC",
"d 	c #8B8C8C",
"e 	c #87888A",
"f 	c #838486",
"g 	c #808183",
"h 	c #7D7E80",
"i 	c #7B7C7E",
"j 	c #7A7B7D",
"k 	c #78797B",
"l 	c #77797A",
"m 	c #797A7C",
"n 	c #7F8082",
"o 	c #59789F",
"p 	c #678CB9",
"q 	c #6B8FBA",
"r 	c #6B8EB9",
"s 	c #6A8EB9",
"t 	c #6A8DB9",
"u 	c #6A8DB8",
"v 	c #698DB8",
"w 	c #698CB8",
"x 	c #698DB9",
"y 	c #A9A9A9",
"z 	c #4E74A3",
"A 	c #A8C4E2",
"B 	c #91B4DA",
"C 	c #92B4DA",
"D 	c #92B5DA",
"E 	c #93B5DA",
"F 	c #93B5DB",
"G 	c #98B9DB",
"H 	c #838383",
"I 	c #4F75A5",
"J 	c #A1BFDF",
"K 	c #7EA7D3",
"L 	c #82AAD5",
"M 	c #A1A1A1",
"N 	c #557BAA",
"O 	c #9CBCDD",
"P 	c #7BA5D2",
"Q 	c #83AAD5",
"R 	c #5C82B0",
"S 	c #98B9DC",
"T 	c #7DA6D3",
"U 	c #729FCF",
"V 	c #88AED6",
"W 	c #7D7E7F",
"X 	c #6388B5",
"Y 	c #94B6DA",
"Z 	c #73A0CF",
"` 	c #8DB1D8",
" .	c #70757B",
"..	c #6E91BC",
"+.	c #8FB3D9",
"@.	c #739FCF",
"#.	c #6A737E",
"$.	c #799BC3",
"%.	c #8AB0D7",
"&.	c #76A2D0",
"*.	c #97B8DC",
"=.	c #667384",
"-.	c #7FA1CA",
";.	c #84ABD5",
">.	c #7DA7D3",
",.	c #7CA6D2",
"'.	c #7AA4D2",
").	c #78A3D1",
"!.	c #75A1D0",
"~.	c #97B8DB",
"{.	c #5F7188",
"].	c #82A7CF",
"^.	c #7FA8D3",
"/.	c #79A4D1",
"(.	c #90B3D8",
"_.	c #566E8C",
":.	c #83A8D0",
"<.	c #86ABD4",
"[.	c #516F94",
"}.	c #7EA5D1",
"|.	c #7DA3CE",
"1.	c #7D7D7D",
"2.	c #4D6F9B",
"3.	c #7BA4D1",
"4.	c #6F9ECF",
"5.	c #6F9DCF",
"6.	c #6E9DCE",
"7.	c #6E9CCE",
"8.	c #6E99C9",
"9.	c #787878",
"0.	c #486F9F",
"a.	c #74A1D0",
"b.	c #6A9ACD",
"c.	c #6999CD",
"d.	c #6A99CD",
"e.	c #737373",
"f.	c #466EA0",
"g.	c #6597CC",
"h.	c #6596CC",
"i.	c #6496CB",
"j.	c #6495CB",
"k.	c #6696CC",
"l.	c #4471A8",
"m.	c #6194CB",
"n.	c #6093CA",
"                                                                ",
"                                                                ",
"                                                                ",
"                                                                ",
"      . + @ # $ % & & * =                                       ",
"      & - ; > , ' ) ! ~ {                                       ",
"      % ] ^ / ( _ : < { [                                       ",
"      * } ( _ ! { | 1 2 3 4                                     ",
"      5 ! [ 6 3 7 8 9 0 a b b b b a 0 9 8 7 3 |                 ",
"      c { d e f g h i j k l l l l k m i h n f e                 ",
"      c { o p q q r s s t u v v w w v v v x x x                 ",
"      y 1 z A B B B C C C C C C D E E E E F F F F F F G         ",
"      ] H I J K K K K K K K K K K K K K K K K K K K K L         ",
"      M 0 N O K K K K K K K K K K K K K K K K K K K P Q         ",
"      M 9 R S K K K K K K K K K K K K K K K K K K T U V         ",
"      > W X Y K K K K K K K K K K K K K K K K K T Z U `         ",
"      :  ...+.K K K K K K K K K K K K K K K K P @.U U D         ",
"      { #.$.%.K K K K K K K K K K K K K K P &.U U U U *.        ",
"      | =.-.;.K K K K K K >.,.P '.).).!.Z U U U U U U ~.        ",
"      3 {.].^.K K ,./.&.@.U U U U U U U U U U U U U U (.        ",
"      9 _.:.T ).Z U U U U U U U U U U U U U U U U U U <.        ",
"      b [.}.U U U U U U U U U U U U U U U U U U U U U |.        ",
"      1.2.3.4.4.4.5.5.5.5.5.5.5.5.6.6.6.6.6.6.6.6.7.7.8.        ",
"      9.0.a.b.b.b.b.b.b.b.b.b.b.b.c.c.c.c.c.c.c.c.c.d.          ",
"      e.f.c.g.g.g.h.h.h.h.h.h.h.h.i.i.i.i.i.i.i.i.j.k.          ",
"        l.m.m.m.m.m.m.m.m.m.m.m.m.m.m.m.m.m.m.m.m.m.n.          ",
"                                                                ",
"                                                                ",
"                                                                ",
"                                                                ",
"                                                                ",
"                                                                "};
