/* XPM */
static char *audio_xpm[]={
"16 16 106 2",
".B c #006904",
".R c #006a04",
".u c #006d07",
".t c #006e03",
".K c #007e01",
".r c #008400",
".s c #008602",
".o c #008703",
".J c #008900",
".G c #008a02",
".H c #008f00",
".I c #009003",
".q c #009102",
".p c #009300",
".C c #009f00",
".n c #00a000",
".h c #00a100",
".m c #00a900",
".l c #00aa01",
".i c #00ae00",
".F c #00af00",
".k c #00af05",
".j c #00b103",
".D c #00b303",
".g c #00b401",
".# c #00c200",
".E c #00c201",
".A c #00c300",
".v c #00c700",
".f c #00ce00",
".a c #00d200",
".w c #00dc00",
".z c #00dd00",
".b c #00e200",
".e c #00e400",
".x c #00f000",
".c c #00f300",
".y c #00f700",
".d c #00f800",
"#x c #1a1a1a",
"#F c #262626",
"#q c #353535",
".S c #3a5f3f",
"#r c #3c3c3c",
"#p c #404040",
"#s c #434343",
"#L c #4d4d4d",
"#G c #4f4f4f",
"#M c #535353",
"#y c #555555",
"#K c #595960",
"#n c #5d5d5d",
"#o c #616161",
".W c #626262",
"#N c #626265",
".2 c #636363",
"#. c #646464",
".X c #656565",
".V c #676767",
"#i c #696969",
".1 c #6b6b6b",
".U c #6e6e6e",
".3 c #6f6f6f",
"#J c #707072",
"#B c #727272",
".Y c #747474",
".T c #767676",
"#h c #777777",
"#z c #787878",
"#t c #7a7a7a",
"#H c #7c7c7c",
"#A c #7e7e7e",
".4 c #818181",
"#j c #858585",
".Z c #868686",
".L c #878787",
"#I c #8a8a8a",
"#E c #8a8a8c",
".5 c #929292",
".M c #939393",
"#w c #969698",
"#k c #979797",
".N c #9e9e9e",
"#C c #a0a0a0",
".6 c #a4a4a4",
".O c #a9a9a9",
".P c #b2b2b2",
"#d c #b3b3b3",
".Q c #b4b4b4",
".7 c #b5b5b5",
".9 c #bbbbbe",
".0 c #bcbcbc",
"#e c #c1c1c1",
".8 c #c3c3c3",
"#c c #c6c6c6",
"#a c #cccccc",
"#l c #cdcdcd",
"## c #cecece",
"#g c #d0d0d0",
"#f c #d2d2d2",
"#u c #dadada",
"#D c #dbdbdb",
"#m c #dedede",
"#v c #e0e0e0",
"#b c #e2e2e2",
"Qt c #ffffff",
"QtQtQtQt.#.a.b.c.d.e.f.gQtQtQtQt",
"QtQt.h.i.j.kQtQtQtQt.l.m.n.oQtQt",
"Qt.p.qQtQtQtQtQtQtQtQtQt.r.rQtQt",
"Qt.sQtQtQtQtQtQtQtQtQtQtQtQt.tQt",
"Qt.uQtQtQt.v.w.x.y.z.AQtQtQt.BQt",
"QtQtQt.C.i.DQtQtQt.E.F.n.GQtQtQt",
"QtQt.H.IQtQtQtQtQtQtQtQt.JQtQtQt",
"QtQt.KQtQt.L.M.N.O.P.QQtQt.RQtQt",
"QtQt.S.T.U.V.W.X.Y.Z.N.Q.0QtQtQt",
"QtQt.1.W.W.W.2.3.4.5.6.7.8.9QtQt",
"Qt#..V.W.W.5###a#b#c#d#e#f#gQtQt",
"Qt.X.V.W.U.1#h.3#i#j#k#l#m#aQtQt",
"QtQt#n.V#o#p#q#q#r#s#t#u#v#wQtQt",
"QtQt#x#y#z#A.3.X#B#C#D#e#EQtQtQt",
"QtQtQtQt#F#G.X#H#I#A#J#KQtQtQtQt",
"QtQtQtQtQt#s#L#M#.#NQtQtQtQtQtQt"};
