/* XPM */
static char * folder_open_xpm[] = {
"32 32 129 2",
"  	c None",
". 	c #C9C9C9",
"+ 	c #C2C2C2",
"@ 	c #C3C3C3",
"# 	c #C4C4C4",
"$ 	c #C5C5C5",
"% 	c #CDCDCD",
"& 	c #AEAEAE",
"* 	c #A1A1A1",
"= 	c #A4A4A4",
"- 	c #ADADAD",
"; 	c #9B9B9B",
"> 	c #A0A0A0",
", 	c #B3B3B3",
"' 	c #939393",
") 	c #BEBEBE",
"! 	c #9F9F9F",
"~ 	c #BFBFBF",
"{ 	c #9A9A9A",
"] 	c #999999",
"^ 	c #989898",
"/ 	c #979797",
"( 	c #969696",
"_ 	c #959595",
": 	c #949494",
"< 	c #929292",
"[ 	c #919191",
"} 	c #9D9D9D",
"| 	c #9C9C9C",
"1 	c #5478A5",
"2 	c #6389B6",
"3 	c #6388B6",
"4 	c #6288B6",
"5 	c #B9B9B9",
"6 	c #597FAE",
"7 	c #AAC6E2",
"8 	c #9ABADD",
"9 	c #99BADD",
"0 	c #99BADC",
"a 	c #A4C1E0",
"b 	c #8F8F8F",
"c 	c #8E8E8E",
"d 	c #8B8C8E",
"e 	c #6589B6",
"f 	c #98B9DC",
"g 	c #85ACD5",
"h 	c #84ABD5",
"i 	c #83ABD5",
"j 	c #83AAD5",
"k 	c #82AAD4",
"l 	c #81AAD4",
"m 	c #81A9D4",
"n 	c #7DA7D3",
"o 	c #9BBBDD",
"p 	c #8B8B8B",
"q 	c #8A8A8A",
"r 	c #7C838D",
"s 	c #7698C2",
"t 	c #8FB3D9",
"u 	c #80A9D4",
"v 	c #80A8D4",
"w 	c #7CA6D3",
"x 	c #739FCF",
"y 	c #9BBADC",
"z 	c #6F7F93",
"A 	c #85A7CE",
"B 	c #87ADD6",
"C 	c #7FA8D4",
"D 	c #7FA8D3",
"E 	c #7BA5D2",
"F 	c #729FCF",
"G 	c #79A3D1",
"H 	c #868686",
"I 	c #5E7898",
"J 	c #8DAFD5",
"K 	c #7EA7D3",
"L 	c #78A3D1",
"M 	c #7E7E7E",
"N 	c #4D729F",
"O 	c #92B5D9",
"P 	c #7AA4D2",
"Q 	c #74A0D0",
"R 	c #8DB1D8",
"S 	c #7A7A7A",
"T 	c #5279AA",
"U 	c #8CB0D8",
"V 	c #7DA6D3",
"W 	c #7CA6D2",
"X 	c #79A4D1",
"Y 	c #75A1D0",
"Z 	c #86ACD5",
"` 	c #73787E",
" .	c #5F86B5",
"..	c #77A3D1",
"+.	c #77A2D1",
"@.	c #76A2D0",
"#.	c #73A0CF",
"$.	c #767676",
"%.	c #617185",
"&.	c #6E95C4",
"*.	c #74A1D0",
"=.	c #6F6F6F",
"-.	c #4D6E96",
";.	c #78A2CE",
">.	c #719FCF",
",.	c #719ECF",
"'.	c #709ECE",
").	c #709DCE",
"!.	c #7AA4D1",
"~.	c #909090",
"{.	c #6A6B6C",
"].	c #4A73A6",
"^.	c #709FCF",
"/.	c #6C9CCE",
"(.	c #6C9BCE",
"_.	c #6B9BCD",
":.	c #6B9ACD",
"<.	c #6D9BCE",
"[.	c #8C8C8C",
"}.	c #526B8A",
"|.	c #5988BD",
"1.	c #6798CD",
"2.	c #6697CC",
"3.	c #6898CD",
"4.	c #4573AB",
"5.	c #6395CC",
"6.	c #6295CC",
"7.	c #6294CB",
"8.	c #6194CB",
"                                                                ",
"                                                                ",
"                                                                ",
"                                                                ",
"    . + @ @ # # # $ $ %                                         ",
"    & * * * * * * * * =                                         ",
"    - ; ; ; ; ; ; ; ; ; >                                       ",
"    , ; ; ; ; ; ; ; ; ; ; '                                     ",
"    ) * * * * * > > > > > > > > > ! ! ! ! > !                   ",
"    @ * * * * > > > > > > ! ! ! ! ! ! ! ! ! >                   ",
"    ~ ; ; ; ; ; ; ; ; { { { ] ] ^ ^ / / / ( ^                   ",
"    ~ ; ; { { { ] ^ / / ( ( ( _ : ' ' < < < [                   ",
"    + } | ; ; 1 2 2 2 2 3 3 3 3 3 4 4 4 4 4 4                   ",
"    5 ] ^ / / 6 7 8 8 8 8 8 8 8 8 8 8 8 8 8 8 8 8 8 9 9 0 a     ",
"      ' b c d e f g g g g g g g h h h h i j j k k l l m n o     ",
"      ' p q r s t g g h h h i i j j k k l l m m u u v w x y     ",
"      { p q z A B h h i i j k k l l m m u v v C C D E F G       ",
"      ; H H I J i j k k l l m m u u v C C D D K K L F F g       ",
"      _ M M N O l m u u v v C C D K K K K n n P Q F F F R       ",
"      ( S S T U v v C C D K K K K n V V W X Y F F F F F Z       ",
"      { S `  .i D K K n E L ..+.@.Y Y #.F F F F F F F L         ",
"      ; $.%.&.K W L *.F F F F F F F F F F F F F F F F K         ",
"      _ =.-.;.Q F >.>.>.,.,.,.,.,.,.,.'.'.'.'.'.'.'.).!.        ",
"      ~.{.].^././.(.(.(.(.(.(.(.(._._._._._._._._.:.<.          ",
"      [.}.|.1.1.1.1.1.1.1.1.1.1.1.2.2.2.2.2.2.2.2.2.3.          ",
"        4.5.6.6.6.6.6.7.7.7.7.7.8.8.8.8.8.8.8.8.8.8.            ",
"                                                                ",
"                                                                ",
"                                                                ",
"                                                                ",
"                                                                ",
"                                                                "};
