/* XPM */
static const char * midi_xpm[] = {
"20 20 256 2",
"  	c None",
". 	c #9C9181",
"+ 	c #A29A8C",
"@ 	c #969491",
"# 	c #959491",
"$ 	c #898988",
"% 	c #80807F",
"& 	c #767572",
"* 	c #868481",
"= 	c #C4C4C4",
"- 	c #9E9E9D",
"; 	c #989796",
"> 	c #91908F",
", 	c #8B8B8A",
"' 	c #999998",
") 	c #EBEAEA",
"! 	c #F1F1F1",
"~ 	c #F5F5F5",
"{ 	c #EBEBEA",
"] 	c #D1D0CF",
"^ 	c #959492",
"/ 	c #7E7C79",
"( 	c #BFBFBE",
"_ 	c #F3F3F3",
": 	c #F6F6F5",
"< 	c #FCFCFC",
"[ 	c #D6D6D6",
"} 	c #888787",
"| 	c #D9D9D8",
"1 	c #F4F3F3",
"2 	c #FDFDFD",
"3 	c #A4A4A2",
"4 	c #CACAC9",
"5 	c #747473",
"6 	c #A2A2A2",
"7 	c #2F2F2E",
"8 	c #2E2D2B",
"9 	c #474644",
"0 	c #616161",
"a 	c #E4E4E3",
"b 	c #E6E6E5",
"c 	c #C9C9C9",
"d 	c #7A7979",
"e 	c #BCBCBB",
"f 	c #EAE9E9",
"g 	c #FEFEFE",
"h 	c #FFFFFF",
"i 	c #ACACAC",
"j 	c #E1E0E0",
"k 	c #E2E2E1",
"l 	c #6F6E6D",
"m 	c #838382",
"n 	c #949392",
"o 	c #A2A1A0",
"p 	c #B2B2B2",
"q 	c #F1F1F0",
"r 	c #D0D0D0",
"s 	c #787877",
"t 	c #B6B6B6",
"u 	c #A9A9A8",
"v 	c #969695",
"w 	c #BBBBBA",
"x 	c #AFAFAE",
"y 	c #7A7875",
"z 	c #363635",
"A 	c #424140",
"B 	c #4F4E4D",
"C 	c #747373",
"D 	c #EFEEEE",
"E 	c #E0DFDF",
"F 	c #A1A1A0",
"G 	c #8F8F8E",
"H 	c #817F7C",
"I 	c #716F6C",
"J 	c #7C7B7A",
"K 	c #DFDFDF",
"L 	c #7D7C7B",
"M 	c #7F7E7D",
"N 	c #9A9998",
"O 	c #A0A09F",
"P 	c #FAFAFA",
"Q 	c #CFCFCF",
"R 	c #E9E9E8",
"S 	c #D7D6D6",
"T 	c #BDBAB5",
"U 	c #91908D",
"V 	c #5E5D5B",
"W 	c #C6C5C4",
"X 	c #50504F",
"Y 	c #6B6A69",
"Z 	c #6C6B6A",
"` 	c #959595",
" .	c #E5E5E5",
"..	c #BCBCBC",
"+.	c #9A9A99",
"@.	c #A5A4A2",
"#.	c #F3F0EA",
"$.	c #EAE3D7",
"%.	c #CFCCC5",
"&.	c #ADAAA5",
"*.	c #5A5856",
"=.	c #ABABAB",
"-.	c #BDBDBD",
";.	c #C1C1C0",
">.	c #D3D3D3",
",.	c #E3E3E2",
"'.	c #C7C7C7",
").	c #979695",
"!.	c #B8B7B7",
"~.	c #999999",
"{.	c #9B9B9B",
"].	c #ADADAD",
"^.	c #8C8B89",
"/.	c #C2BFBB",
"(.	c #BDBAB4",
"_.	c #C8C2B7",
":.	c #C5BAA8",
"<.	c #625D57",
"[.	c #717171",
"}.	c #696969",
"|.	c #989797",
"1.	c #B0B0B0",
"2.	c #D8D8D8",
"3.	c #AEADAC",
"4.	c #7C7C7B",
"5.	c #999895",
"6.	c #C1BFBB",
"7.	c #BCB8B3",
"8.	c #C3BDB5",
"9.	c #C8BCA8",
"0.	c #645E56",
"a.	c #656564",
"b.	c #757473",
"c.	c #747372",
"d.	c #979797",
"e.	c #BCBCBA",
"f.	c #626261",
"g.	c #C0BEBB",
"h.	c #D1CEC9",
"i.	c #CFCBC5",
"j.	c #CFC9C2",
"k.	c #C8C2B9",
"l.	c #D1C2AA",
"m.	c #4B4A4A",
"n.	c #313131",
"o.	c #605F5E",
"p.	c #868686",
"q.	c #F4F4F4",
"r.	c #D1D1D1",
"s.	c #ADACAC",
"t.	c #D1D0CD",
"u.	c #DEDAD4",
"v.	c #DCD7D0",
"w.	c #C2BDB6",
"x.	c #E1D9CD",
"y.	c #E0D7C9",
"z.	c #DED4C5",
"A.	c #E1D4BF",
"B.	c #D5C4AA",
"C.	c #7E7E7D",
"D.	c #A09F9E",
"E.	c #9F9E9E",
"F.	c #BABABA",
"G.	c #EEEEEE",
"H.	c #CECECE",
"I.	c #767573",
"J.	c #B0B0AF",
"K.	c #E0DBD5",
"L.	c #EFEAE1",
"M.	c #CBC5BE",
"N.	c #938F89",
"O.	c #938F88",
"P.	c #DACEB9",
"Q.	c #E5D6BD",
"R.	c #E7D6BC",
"S.	c #D7C5A9",
"T.	c #B3B3B3",
"U.	c #D4D4D4",
"V.	c #CBCBCB",
"W.	c #757471",
"X.	c #94928F",
"Y.	c #B9B6B0",
"Z.	c #C5C0BA",
"`.	c #ABA7A1",
" +	c #9F9B96",
".+	c #C3BCB2",
"++	c #85827C",
"@+	c #BDB6AB",
"#+	c #C4B9A9",
"$+	c #D4BD9C",
"%+	c #9C9C9C",
"&+	c #B6B6B5",
"*+	c #C6C5C5",
"=+	c #F7F7F7",
"-+	c #F9F9F9",
";+	c #D5D5D5",
">+	c #918F8B",
",+	c #B2AFA8",
"'+	c #BFBBB4",
")+	c #8E8C8A",
"!+	c #9B9790",
"~+	c #BDB7AC",
"{+	c #83807B",
"]+	c #B8B1A5",
"^+	c #C3B5A2",
"/+	c #D4BC99",
"(+	c #645E55",
"_+	c #918F8A",
":+	c #B2ADA7",
"<+	c #B9B4AC",
"[+	c #7E7B76",
"}+	c #A9A49B",
"|+	c #B5AFA5",
"1+	c #817E79",
"2+	c #B9B0A3",
"3+	c #C6B8A3",
"4+	c #D5BB94",
"5+	c #655D52",
"6+	c #979796",
"7+	c #9F9F9E",
"8+	c #A8A8A8",
"9+	c #73716F",
"0+	c #AFA79A",
"a+	c #DDD1BE",
"b+	c #EADBC3",
"c+	c #E9D8BD",
"d+	c #E6D5BB",
"e+	c #8B867E",
"f+	c #91897D",
"g+	c #E3CAA6",
"h+	c #A6A6A5",
"i+	c #818180",
"j+	c #6D6C6A",
"k+	c #8E8B87",
"l+	c #8F8C88",
"m+	c #ADA393",
"n+	c #D0C3AF",
"o+	c #D8C9B2",
"p+	c #DAC9AE",
"q+	c #D7C3A5",
"r+	c #CDB798",
"s+	c #D0B998",
"t+	c #C6AD87",
"u+	c #615A51",
"v+	c #D8D7D7",
"w+	c #B3B3B2",
"x+	c #5B5B59",
"y+	c #575654",
"z+	c #5B5956",
"A+	c #656058",
"B+	c #656059",
"C+	c #C7C6C5",
"D+	c #DFDEDE",
"E+	c #C2C1C1",
"F+	c #C3C2C2",
"G+	c #D9D9D9",
"          . + @ # # $ % & * =           ",
"    - - ; > , ' ) ! ~ { ] ^ /           ",
"( _ : ~ < < [ } | 1 2 2 ~ 3 4 5 6       ",
"7 8 9 0 a b c d e f < g h i j k l 6     ",
"m n o p q ! r s t f < g h u v w x y     ",
"z A B C D ! r s t f < h h E F G H I J K ",
"L M N O b b c s t f 2 h P Q R S T U V W ",
"X Y Z ` P < [ s t f  ...+.@.#.$.%.&.*.W ",
"=.-.;.>.,.,.'.s ).!.~.{.].^./.(._.:.<.W ",
"[.}.|.1.h h 2.s ).!.~.3.4.5.6.7.8.9.0.W ",
"a.b.c.d.,.,.'.s O e.f.g.h.i.j.k.8.l.0.W ",
"m.n.o.p.q.q.r.s s.t.u.v.w.x.y.z.A.B.0.W ",
"C.D.E.F.G.G.H.I.J.K.L.M.N.O.P.Q.R.S.0.W ",
"T.r.U.K R R V.W.X.Y.Z.`. +.+++@+#+$+0.W ",
"%+&+*+'.=+-+;+W.>+,+'+)+!+~+{+]+^+/+(+W ",
"z A B C ,.,.'.W._+:+<+[+}+|+1+2+3+4+5+W ",
"p.6+6+7+8+8+v 9+0+a+b+c+d+e+f+g+g+4+5+W ",
"a ;.h+6 i+j+k+l+m+n+o+p+q+r+s+4+4+t+u+W ",
"    v+[ w+x+y+y+z+A+B+B+B+0.(+5+5+u+z+C+",
"          D+E+E+F+W W W W W W W W W C+G+"};
