/* XPM */
static char * input_xpm[] = {
"39 32 6 1",
" 	c None",
".	c #000000",
"+	c #010101",
"@	c #040404",
"#	c #050505",
"$	c #060606",
"                                       ",
"                                       ",
"                                       ",
"                                       ",
"                                       ",
"     .                   .             ",
"    .+                   .+            ",
"   @.                     .@           ",
"   .   ..             ..  @.           ",
"  #.  @.               .#  .#          ",
"  .   .#   #       @   @.  @.          ",
"  .  #.   .        #.   .#  .          ",
" #+  .#  @@    #.   +@  +.  .          ",
" #@  .   .    +..    .   .  +#         ",
" @@  .   +   .+++    .   .  +#         ",
" @@  .   @  .+++++.+.+++.+..++.+.      ",
" @@  .   @   #.+.    .   +@ +@         ",
" #@  .   .     +.    .   .  +#         ",
" #+  .   .      #    .  #.  .          ",
"  .  ++   .         .   +@  .          ",
"  .   .   .@       +.   .  #.          ",
"  ++  .+               +.  .@          ",
"   .   .#             $.   .           ",
"   .+  @+             #+  .+           ",
"    .#                   #.            ",
"    #.                  #.#            ",
"                         #             ",
"                                       ",
"                                       ",
"                                       ",
"                                       ",
"                                       "};
