/* XPM */
static char * midi_xpm[] = {
"20 20 59 1",
" 	c None",
".	c #585858",
"+	c #DEDEDE",
"@	c #BCB7B1",
"#	c #999999",
"$	c #FFFFFF",
"%	c #808080",
"&	c #DBDBDB",
"*	c #EAEAEA",
"=	c #6D6D6D",
"-	c #A0A0A0",
";	c #000000",
">	c #FCFCFC",
",	c #707070",
"'	c #CECECE",
")	c #303030",
"!	c #898989",
"~	c #6B6B6B",
"{	c #424242",
"]	c #F6F5F5",
"^	c #E2E0DE",
"/	c #8F8984",
"(	c #FBF9F6",
"_	c #F4F0EC",
":	c #E7E0D9",
"<	c #BEB6AF",
"[	c #FEFEFE",
"}	c #F8F4ED",
"|	c #F3EDE3",
"1	c #EEE7DC",
"2	c #BCAE97",
"3	c #FEFEFD",
"4	c #FAF8F4",
"5	c #F3EBDC",
"6	c #ECE2D4",
"7	c #B8B8B8",
"8	c #ECDFCA",
"9	c #BCAB90",
"0	c #F8F3EB",
"a	c #F5EEE3",
"b	c #F1E4D2",
"c	c #ECDBC2",
"d	c #BCA88A",
"e	c #E9D6BA",
"f	c #BCA685",
"g	c #EEDFC8",
"h	c #ECDAC0",
"i	c #E7D1B0",
"j	c #BCA37F",
"k	c #E5CCA7",
"l	c #BCA178",
"m	c #C4BDAC",
"n	c #C3B8A3",
"o	c #C2B39A",
"p	c #C0AF91",
"q	c #BFAA88",
"r	c #BEA57F",
"s	c #BDA076",
"t	c #BC9E73",
"                    ",
"                    ",
"     .........      ",
" .......+++@.#.     ",
" .$$$$$%&$$*=$#.    ",
" .-;;$$%&$$>,'$#)   ",
" .$$$$$%&$$$!,~{)   ",
" .%;;$$%&$$$]^@/)   ",
" .$$$$$%&$$.(_:<)   ",
" .%;;$$%&$[.}|12)   ",
" .$$$$$%&34..562)   ",
" .$$$$$%7--.--89)   ",
" .%;;$$%&0a.b-cd)   ",
" .$$$$$%7-..--ef)   ",
" .%;;$$%&%.gh-ij)   ",
" .$$$$$%7-----kl)   ",
" .......mnopqrst)   ",
"     .)))))))))))   ",
"                    ",
"                    "};
