/* XPM */
static char * output_xpm[] = {
"39 32 17 1",
" 	c None",
".	c #949494",
"+	c #F3F3F3",
"@	c #9C9C9C",
"#	c #FFFFFF",
"$	c #EBEBEB",
"%	c #CBCBCB",
"&	c #DBDBDB",
"*	c #ABABAB",
"=	c #E3E3E3",
"-	c #A3A3A3",
";	c #D3D3D3",
">	c #BBBBBB",
",	c #F9F9F9",
"'	c #C4C4C4",
")	c #B3B3B3",
"!	c #FBFBFB",
"                                       ",
"                                       ",
"                                       ",
"                                       ",
"                                       ",
"     .                   .             ",
"    .@                   .@            ",
"   -.                     .-           ",
"   .   ..             ..  -.           ",
"   .  -.               .   .           ",
"  .   .            -   -.  -.          ",
"  .   .   .         .   .   .          ",
"  @  .   --         @-  @.  .          ",
"  -  .   .           .   .  @    .@    ",
" --  .   @           .   .  @    .@.   ",
" --  .   -       @.@.@@@.@..@@.@.@@@@. ",
" --  .   -           .   @- @-   @@@.  ",
"  -  .   .           .   .  @    ..@   ",
"  @  .   .           .   .  .    .     ",
"  .  @@   .         .   @-  .          ",
"  .   .   .-       @.   .   .          ",
"  @@  .@               @.  .-          ",
"   .   .              -.   .           ",
"   .@  -@             @@  .@           ",
"    .                     .            ",
"     .                   .             ",
"                                       ",
"                                       ",
"                                       ",
"                                       ",
"                                       ",
"                                       "};
