/* XPM */
static const char * general_xpm[] = {
"32 32 320 2",
"  	c None",
". 	c #6F85A8",
"+ 	c #7288AA",
"@ 	c #7183A3",
"# 	c #496592",
"$ 	c #4F6B96",
"% 	c #7689AB",
"& 	c #4F6995",
"* 	c #506A96",
"= 	c #7686A6",
"- 	c #7286AB",
"; 	c #546C98",
"> 	c #556D99",
", 	c #7B8DAE",
"' 	c #B1BDD0",
") 	c #B8C3D5",
"! 	c #8192B0",
"~ 	c #667BA4",
"{ 	c #59709B",
"] 	c #5A719C",
"^ 	c #7084A9",
"/ 	c #808FAD",
"( 	c #8593B1",
"_ 	c #6F81A8",
": 	c #7E8DB0",
"< 	c #BCC6D6",
"[ 	c #AAB6CC",
"} 	c #AAB7CC",
"| 	c #B6C0D3",
"1 	c #AEB8CB",
"2 	c #B0BACF",
"3 	c #7488AB",
"4 	c #5D749E",
"5 	c #5E739E",
"6 	c #5F749E",
"7 	c #60759F",
"8 	c #6176A0",
"9 	c #6479A1",
"0 	c #7989AE",
"a 	c #8C9AB9",
"b 	c #8796B6",
"c 	c #6A7DA5",
"d 	c #6A7CA5",
"e 	c #6F80A7",
"f 	c #B9C3D5",
"g 	c #ADB8CE",
"h 	c #AEB9CE",
"i 	c #B2BDD1",
"j 	c #8999B8",
"k 	c #6377A1",
"l 	c #6478A1",
"m 	c #6579A2",
"n 	c #6679A3",
"o 	c #677AA3",
"p 	c #697BA4",
"q 	c #7485AB",
"r 	c #6C7EA6",
"s 	c #6D7EA7",
"t 	c #7080A9",
"u 	c #919CBB",
"v 	c #B4BED2",
"w 	c #B1BBD0",
"x 	c #B2BBD0",
"y 	c #8190B2",
"z 	c #697AA4",
"A 	c #6A7BA4",
"B 	c #6B7CA5",
"C 	c #6C7DA6",
"D 	c #6D7EA6",
"E 	c #6F7EA7",
"F 	c #707FA8",
"G 	c #7180A8",
"H 	c #7281A9",
"I 	c #7382AA",
"J 	c #909CBC",
"K 	c #C4CCDC",
"L 	c #B3BDD1",
"M 	c #B4BDD1",
"N 	c #B4BDD2",
"O 	c #7B8BB0",
"P 	c #6D7FA7",
"Q 	c #6E7EA7",
"R 	c #7282AA",
"S 	c #7181A9",
"T 	c #7482AB",
"U 	c #7583AB",
"V 	c #7684AC",
"W 	c #7785AD",
"X 	c #7A88AF",
"Y 	c #96A0BD",
"Z 	c #BFC7D8",
"` 	c #B6BFD3",
" .	c #B6BED3",
"..	c #7787AD",
"+.	c #7182AA",
"@.	c #A2AEC7",
"#.	c #B4BCD0",
"$.	c #A9B0C4",
"%.	c #B4BCD1",
"&.	c #A1ABC6",
"*.	c #7986AE",
"=.	c #7A87AE",
"-.	c #7B88AF",
";.	c #7C89B0",
">.	c #7D8AB1",
",.	c #9AA3C1",
"'.	c #C4CAD9",
").	c #B9C1D5",
"!.	c #B9C0D5",
"~.	c #B9C0D4",
"{.	c #9AA4C2",
"].	c #98A3C1",
"^.	c #BBC1D4",
"/.	c #B5BAD1",
"(.	c #818CB2",
"_.	c #828DB3",
":.	c #838DB4",
"<.	c #9EA5C4",
"[.	c #C7CDDD",
"}.	c #BAC2D6",
"|.	c #BBC2D6",
"1.	c #A8B0CA",
"2.	c #B1B8CF",
"3.	c #ADB3CD",
"4.	c #868FB5",
"5.	c #8790B6",
"6.	c #8891B7",
"7.	c #B4B9D1",
"8.	c #BCC0D6",
"9.	c #BFC6D8",
"0.	c #BCC3D7",
"a.	c #A0AAC6",
"b.	c #B8BED4",
"c.	c #919BBD",
"d.	c #979FC0",
"e.	c #AAB0CC",
"f.	c #9CA3C3",
"g.	c #C2C6DA",
"h.	c #C5C8DB",
"i.	c #AFB4CD",
"j.	c #A2A6C1",
"k.	c #C9CEDE",
"l.	c #C5CADC",
"m.	c #C2C7DA",
"n.	c #BFC4D7",
"o.	c #B9BFD4",
"p.	c #ABB2CC",
"q.	c #828CB3",
"r.	c #838DB3",
"s.	c #A8AFCA",
"t.	c #AFB4CE",
"u.	c #C7CADD",
"v.	c #C9CCDE",
"w.	c #C4C7DB",
"x.	c #A9ACCA",
"y.	c #979BBF",
"z.	c #989CC0",
"A.	c #9CA0C2",
"B.	c #A9ABCA",
"C.	c #B3B8CA",
"D.	c #ADB4CD",
"E.	c #9DA5C3",
"F.	c #BFC4D8",
"G.	c #939CBD",
"H.	c #8892B7",
"I.	c #9EA6C4",
"J.	c #8890B6",
"K.	c #B7BCD3",
"L.	c #BBBDD4",
"M.	c #CACCDE",
"N.	c #C4C6DB",
"O.	c #9FA2C4",
"P.	c #9B9DC1",
"Q.	c #9C9EC2",
"R.	c #9D9FC3",
"S.	c #9EA0C3",
"T.	c #A5A7C8",
"U.	c #9AA2C1",
"V.	c #A6ADC9",
"W.	c #8F97BB",
"X.	c #8992B7",
"Y.	c #8A93B8",
"Z.	c #8C94B9",
"`.	c #8D94B9",
" +	c #AEB3CE",
".+	c #D2D4E4",
"++	c #C9CBDE",
"@+	c #A0A3C6",
"#+	c #9FA1C4",
"$+	c #A0A1C5",
"%+	c #B1B2D0",
"&+	c #B8B9D3",
"*+	c #B0B1CB",
"=+	c #A3A4BE",
"-+	c #9097BB",
";+	c #9298BC",
">+	c #9398BC",
",+	c #A1A5C5",
"'+	c #D2D3E4",
")+	c #B6B7D2",
"!+	c #A3A4C7",
"~+	c #A5A5C7",
"{+	c #B0AFCE",
"]+	c #A1A5C6",
"^+	c #959ABF",
"/+	c #979BC0",
"(+	c #999CC1",
"_+	c #C1C3DA",
":+	c #D8D8E7",
"<+	c #CFCFE1",
"[+	c #A8A8CA",
"}+	c #A8A7CA",
"|+	c #AAA8CB",
"1+	c #BDBCD6",
"2+	c #B2B4D0",
"3+	c #9B9EC2",
"4+	c #9C9FC3",
"5+	c #9FA0C4",
"6+	c #A4A5C7",
"7+	c #CFCFE0",
"8+	c #DFDEEB",
"9+	c #D4D3E5",
"0+	c #C7C6DC",
"a+	c #ACAACC",
"b+	c #AEABCD",
"c+	c #B2AFD0",
"d+	c #A8AACA",
"e+	c #A2A3C6",
"f+	c #A3A3C6",
"g+	c #A4A4C7",
"h+	c #A5A5C8",
"i+	c #A6A6C8",
"j+	c #C3C3DA",
"k+	c #D0CFE2",
"l+	c #BABACD",
"m+	c #C5C5D6",
"n+	c #D1CFE2",
"o+	c #BFBDD8",
"p+	c #C3C0DA",
"q+	c #D8D6E7",
"r+	c #C5C2DB",
"s+	c #B2AECF",
"t+	c #B3AFD0",
"u+	c #C0BCD8",
"v+	c #BCBCD6",
"w+	c #A7A6C9",
"x+	c #A8A7C9",
"y+	c #A9A7CA",
"z+	c #ABA9CB",
"A+	c #AFACCD",
"B+	c #B0ADCE",
"C+	c #B1ADCF",
"D+	c #BAB6D4",
"E+	c #DAD8E8",
"F+	c #C6C2DB",
"G+	c #B7B2D2",
"H+	c #B8B2D3",
"I+	c #C5BFDB",
"J+	c #B5B3D1",
"K+	c #ADABCC",
"L+	c #AFABCD",
"M+	c #B0ACCE",
"N+	c #B4B0D1",
"O+	c #B6B0D1",
"P+	c #B7B1D2",
"Q+	c #BDB8D6",
"R+	c #D8D4E6",
"S+	c #DDDAEA",
"T+	c #CFCBE1",
"U+	c #BDB5D6",
"V+	c #BEB6D6",
"W+	c #BFB7D7",
"X+	c #C9C4DC",
"Y+	c #BEBCD6",
"Z+	c #B1AECF",
"`+	c #B6B1D1",
" @	c #B5B0D0",
".@	c #B5B0D1",
"+@	c #B9B2D3",
"@@	c #BAB3D4",
"#@	c #BBB4D4",
"$@	c #BCB5D5",
"%@	c #C0BAD8",
"&@	c #CEC8E0",
"*@	c #DDD8EA",
"=@	c #D9D3E7",
"-@	c #CCC4DE",
";@	c #C3BAD9",
">@	c #C4BBDA",
",@	c #C8BEDD",
"'@	c #BFBDD5",
")@	c #B5B1D0",
"!@	c #BEBAD6",
"~@	c #BAB7CF",
"{@	c #C7C1DB",
"]@	c #BEB7D6",
"^@	c #BFB7D6",
"/@	c #C0B7D7",
"(@	c #C1B8D8",
"_@	c #C2B9D8",
":@	c #D7CFE5",
"<@	c #D2C9E1",
"[@	c #CAC0DE",
"}@	c #C8BDDC",
"|@	c #D2CAE3",
"1@	c #C8C2DC",
"2@	c #B1ADC6",
"3@	c #D1CAE2",
"4@	c #C4BADA",
"5@	c #C6BBDB",
"6@	c #CBC1DE",
"7@	c #D3CBE2",
"8@	c #D0C7E1",
"9@	c #C4BDD5",
"0@	c #D3CAE3",
"a@	c #D4CBE3",
"b@	c #CDC3DF",
"c@	c #C5BED5",
"d@	c #D6CEE5",
"e@	c #D2C9E3",
"                                                                ",
"                              . +                               ",
"                            @ # $                               ",
"                            % & * =                             ",
"                            - ; > ,                             ",
"            ' )           ! ~ { ] ^ /         ( _ :             ",
"          < [ } | 1   2 3 4 5 6 7 8 9 0 a   b c d e             ",
"            f g h i 2 j 7 8 k l m n o p d q r s t u             ",
"              v w w x x y o z A B C D E F G H I J               ",
"              K L M N O P r Q R t S R T U V W X Y               ",
"              Z ` `  ...+.@.#.  $.%.&.*.=.-.;.>.,.              ",
"            '.).!.~.{.].^.            /.(.(._.:.<.              ",
"            [.}.|.1.*.2.                3.4.5.6.7.8.            ",
"            9.0.a.b.c.                    d.e.f.g.h.i.j.        ",
"    k.l.m.n.o.p.q.r.s.                    t.u.v.w.x.y.z.A.B.    ",
"  C.D.E.F.G.H.I.5.J.K.                    L.M.N.O.P.Q.R.S.T.    ",
"    1.U.V.W.X.Y.Z.`. +                    .+++@+#+$+%+&+*+=+    ",
"            -+-+;+>+,+                    '+)+!+~+{+            ",
"            ]+^+/+z.(+_+                :+<+[+}+|+1+            ",
"            2+3+4+R.5+6+7+            8+9+0+a+b+c+              ",
"              d+e+f+g+h+i+j+k+l+m+n+o+p+q+r+s+t+u+              ",
"              v+w+x+y+|+z+a+b+A+B+C+s+D+E+F+G+H+I+              ",
"              J+a+K+L+M+C+s+t+N+O+P+Q+R+S+T+U+V+W+X+            ",
"            Y+B+Z+`+ @.@`+G++@@@#@$@%@&@*@=@-@;@>@,@            ",
"          '@)@.@!@  ~@{@]@$@V+^@/@(@_@>@:@    <@[@}@|@          ",
"            %@1@        2@3@-@4@5@6@7@            8@            ",
"                            9@}@}@0@                            ",
"                              [@}@a@                            ",
"                              b@}@c@                            ",
"                              d@e@                              ",
"                                                                ",
"                                                                "};
