/* XPM */
static const char * wired_session_folder_xpm[] = {
/* columns rows colors chars-per-pixel */
"32 32 256 2",
"   c #011D4F",
".  c #1C3A4E",
"X  c #001B78",
"o  c #001C74",
"O  c #002177",
"+  c #21404E",
"@  c #2A4A4E",
"#  c #3C5C4E",
"$  c #41624E",
"%  c #50724E",
"&  c #68883E",
"*  c #678B4E",
"=  c #6F944E",
"-  c #769B4E",
";  c #769B4E",
":  c #7FAE6C",
">  c #75A07C",
",  c #80A23E",
"<  c #88AF4D",
"1  c #8AB24D",
"2  c #96BD4A",
"3  c #85AD79",
"4  c #9EC74D",
"5  c #9AC24C",
"6  c #B1CF76",
"7  c #00248E",
"8  c #00249B",
"9  c #002E9B",
"0  c #053799",
"q  c #001BAE",
"w  c #001EAE",
"e  c #001EB2",
"r  c #0025A3",
"t  c #0027A5",
"y  c #002AA2",
"u  c #002AA6",
"i  c #0024AD",
"p  c #0028AA",
"a  c #002DA9",
"s  c #002BAF",
"d  c #0035A6",
"f  c #0034AA",
"g  c #083AAA",
"h  c #0025B2",
"j  c #022BB6",
"k  c #062BB4",
"l  c #0338B8",
"z  c #1038BC",
"x  c #2C4C98",
"c  c #0D43AE",
"v  c #1446A8",
"b  c #064DBB",
"n  c #0C4AB8",
"m  c #0851BE",
"M  c #1D58BF",
"N  c #2C58B4",
"B  c #3F78AB",
"V  c #4D5B98",
"C  c #596190",
"Z  c #5C6BAE",
"A  c #536FB8",
"S  c #606AA4",
"D  c #6D77AC",
"F  c #767FB3",
"G  c #002FC1",
"H  c #073DCA",
"J  c #073AC6",
"K  c #143EC3",
"L  c #0840CD",
"P  c #1A44C3",
"I  c #1D4CCB",
"U  c #0B55C2",
"Y  c #1458C1",
"T  c #0946D4",
"R  c #094EDC",
"E  c #0745D3",
"W  c #184ED3",
"Q  c #0950DF",
"!  c #1E57D8",
"~  c #2459D9",
"^  c #1C66DF",
"/  c #2A63C2",
"(  c #2868CB",
")  c #3B6FC9",
"_  c #3D76CE",
"`  c #3C73CC",
"'  c #2B65DF",
"]  c #3E79D1",
"[  c #1F62E2",
"{  c #2563E3",
"}  c #2162E4",
"|  c #2A69E4",
" . c #316DE3",
".. c #386FE0",
"X. c #306FEA",
"o. c #3877ED",
"O. c #3D7AEB",
"+. c #4077CD",
"@. c #4479CF",
"#. c #467DD2",
"$. c #427BD2",
"%. c #4A7FD4",
"&. c #427DED",
"*. c #679283",
"=. c #558AAD",
"-. c #5591B5",
";. c #7D88BB",
":. c #4881D3",
">. c #4E80D4",
",. c #4982D4",
"<. c #4780D3",
"1. c #5D8EDC",
"2. c #5282D5",
"3. c #5892DD",
"4. c #6190DD",
"5. c #7194D5",
"6. c #7899D8",
"7. c #769EDD",
"8. c #78A7CA",
"9. c #568FE7",
"0. c #588DED",
"q. c #5F9CEF",
"w. c #4583F0",
"e. c #4C87F1",
"r. c #518DF2",
"t. c #4D96FA",
"y. c #5691F3",
"u. c #519EFF",
"i. c #5C96F3",
"p. c #619AF4",
"a. c #659FF6",
"s. c #55A2FF",
"d. c #5BA6FF",
"f. c #6CAFFF",
"g. c #68A6FB",
"h. c #70A6F7",
"j. c #74ABF9",
"k. c #7AADF5",
"l. c #7DB4F3",
"z. c #79B9FF",
"x. c #83B19F",
"c. c #9198AA",
"v. c #848CBB",
"b. c #868BB7",
"n. c #9FA2AC",
"m. c #A2A4AE",
"M. c #A8ABB3",
"N. c #B3B5BE",
"B. c #BCD196",
"V. c #AEC1A1",
"C. c #ADD7A5",
"Z. c #B9DDA5",
"A. c #BAE0A5",
"S. c #C9DDA3",
"D. c #CADEA4",
"F. c #C3D8A1",
"G. c #CEE2A5",
"H. c #CBE0A4",
"J. c #838CC0",
"K. c #8C94C0",
"L. c #919BC3",
"P. c #989FC7",
"I. c #979FC9",
"U. c #9BA1C6",
"Y. c #9DAFD4",
"T. c #9FB2D6",
"R. c #A5ABCD",
"E. c #B5B5CB",
"W. c #BBBBCE",
"Q. c #BABDC4",
"!. c #ADB3D5",
"~. c #BEBED1",
"^. c #B9BEDD",
"/. c #84AEE2",
"(. c #82B8F3",
"). c #81B4FA",
"_. c #81B7FC",
"`. c #86BCFE",
"'. c #87BAF8",
"]. c #92C2D2",
"[. c #B6D2DB",
"{. c #8DC2FF",
"}. c #86C2FF",
"|. c #90C2FD",
" X c #93C5FE",
".X c #96CAFF",
"XX c #97CEFF",
"oX c #9BCAF8",
"OX c #BCCBEC",
"+X c #A3C5F3",
"@X c #ACCAF3",
"#X c #B2CFF4",
"$X c #A3D3FF",
"%X c #A4DBFF",
"&X c #AEDAFF",
"*X c #AFDEFF",
"=X c #B3D3F3",
"-X c #BFDBF3",
";X c #B6DAFF",
":X c #BADAFA",
">X c #B5E4FF",
",X c #BCE3FE",
"<X c #BEEBFF",
"1X c #B8E8FF",
"2X c #C2C4CB",
"3X c #C2C2D4",
"4X c #C5C5D6",
"5X c #C0C0D2",
"6X c #C9C9D9",
"7X c #CDCDDD",
"8X c #C6C9D9",
"9X c #D2D2DD",
"0X c #DCF0D2",
"qX c #E6F0D2",
"wX c #CBCEE4",
"eX c #C6D5EA",
"rX c #D3D3E0",
"tX c #D6D6E3",
"yX c #DBDBE7",
"uX c #DEDEE9",
"iX c #DDDFEF",
"pX c #D2D5E9",
"aX c #C5DAF6",
"sX c #D8DFF1",
"dX c #C6E3F9",
"fX c #C3EBFF",
"gX c #C2EDFF",
"hX c #CAEFFF",
"jX c #DFE1F2",
"kX c #D7E5FA",
"lX c #C7F1FF",
"zX c #CBF3FF",
"xX c #CFF5FF",
"cX c #D1F4FF",
"vX c #D2F2FF",
"bX c #D9F6FF",
"nX c #DDFBFF",
"mX c #E1E1EB",
"MX c #E5E5F3",
"NX c #E9E9F6",
"BX c #EEEEF6",
"VX c #EDEDF9",
"CX c #E2FBFF",
"ZX c #E7FDFF",
"AX c #EAFFFF",
"SX c #EDFFFF",
"DX c #E4F3FD",
"FX c #F0F0FA",
"GX c #F3F3FC",
"HX c #F5F5FD",
"JX c #F3F4FC",
"KX c #F3FFFF",
"LX c #FAFAFF",
"PX c #FBFEFF",
"IX c #FFFFFF",
"UX c None",
/* pixels */
"UXUXUXUXUXUXUXUXUXUXUXUXUXUXUXUXUXUXUXUXUXUXUXUXUXUXUXUXUXUXUXUX",
"UXUXUXUXUXUXUXUXUXUXUXUXUXUXUXUXUXUXUXUXUXUXUXUXUXUXUXUXUXUXUXUX",
"UXUXUXUXUXUXUXUXUXUXUXUXUXUXUXUXUXUXUXUX;.F UXUXUXUXUXUXUXUXUXUX",
"UXUXUXUXUXUXUXUXUXUXUXUXUXUXUXUXUXUXv.v.wXv.UXUXUXUXUXUXUXUXUXUX",
"UXUXUXUXUXUXUXUXUXUXUXUXUXUXUXUXUXv.R.FXHXpXD UXUXUXUXUXUXUXUXUX",
"UXUXUXUXUXUXUXUXUXUXUXUXUXUXUXv.K.iXLXVXNXIXI.C UXUXUXUXUXUXUXUX",
"UXU m m m b b b b b UXUXUXUXv.!.PXHXFXVXNXBXJXF UXUXUXUXUXUXUXUX",
"UX,.PXAXZXnXbXvXhX(.U v b.P.jXIXHXGXFXVXNXNXHX^.S UXUXUXUXUXUXUX",
"UX,.SXxXzXlXgX<X1X>X/.;.8XIXPXLXHXGXFXVXNXNXMXIXJ.x UXUXUXUXUXUX",
"UX:.SXxXzXlXgX<X>XY.U.NXIXIXLXLXHXGXFXVXNXNXMXNXjXZ 0 UXUXUXUXUX",
"UX#.AXxXzXlXgX=XL.wXIXIXIXIXLXLXHXGXFXVXNXNXMXMXLX!.V UXUXUXUXUX",
"UX#.ZXxXzXfXY.R.GXIXIXIXIXIXLXLXHXGXFXVXNXOX5.5.5.6.N 0 d d d UX",
"UX$.CXxXzX,XU.IXIXIXIXIXIXIXLXLXHXGXFXVXOXn _ 4.1.1.1.2.>.>.n 9 ",
"UX$.CXxXzXlXT.wXIXIXIXIXIXIXLXLXHXGXFXjX/ %.;X{.`.`.{.j.q.9.l UX",
"UX] nXxXzXlX3./ :.<.#.#.@.@.+._ ` ` ) M >.;Xg.u.u.u.s.s.^ h f UX",
"UX_ bXxXzX*XU @XOXaXaX-X:X=X#X@X@X+X+X@X;Xf.s.u.u.u.d. .j s 9 UX",
"UX_ Z.< 5 > =.PXsXDXKXZXbXzX<X*X$X.X}.z.f.d.u.u.t.O.K j w a O UX",
"UX5 4 4 4 4 4 0XDXeXAXnXcXfX&X X_.a.y.w.o. .' ~ K j h q w a UXUX",
"1 4 4 4 4 4 4 4 [.dX-XcX&X|.).h.p.r.&.X.{ ~ W J l G e q i y UXUX",
"4 4 4 4 4 4 4 4 A.gXoXXX.X`.k.h.i.e.O.| { W J H H G e q p 7 UXUX",
"4 4 4 4 4 % - 4 C.%XXX(.|._.j.a.y.w.o.} T E T L H G e q a UXUXUX",
"5 4 4 4 %   # 4 ].%XXX(.l._.h.p.r.w.[ R Q R T H H G e i y UXUXUX",
"UX4 4 4 %   # C.,X&X$X Xk.).8.x.0...{ } ! ! I P P z k p 7 UXUXUX",
"UXB 3 4 %   # G.qX* % F.BX6 % . uXyXtX9X7X6X4X5XW.E.E.g o UXUXUX",
"UX( l.Y %   # G.G.    S.V.@     mXyXtXrX7X6X4X3X~.W.L.t UXUXUXUX",
"4 : -.7.%   # G.G.    D.S.    @ mXuXyXtX9X7X6X3X~.W.A 8 UXUXUXUX",
"4 4 4 kX%   # G.G.    H.S.    4 mXuXyXtXrX7X6X4X3X~.v X UXUXUXUX",
"4 4 4 G.%   # G.G.    H.S.    B.9X6X2XQ.N.M.m.m.n.c.r UXUXUXUXUX",
"4 4 4 =.;     * -     = =     *.N N c a a u u t t r 8 UXUXUXUXUX",
"4 4 2 UX, +                 # & UXUXUXUXUXUXUXUXUXUXUXUXUXUXUXUX",
"4 UXUXUXUX5 $     % %     % 2 UXUXUXUXUXUXUXUXUXUXUXUXUXUXUXUXUX",
"UXUXUXUXUXUXUX4 4 UXUX4 4 UXUXUXUXUXUXUXUXUXUXUXUXUXUXUXUXUXUXUX"
};
